<svg xmlns="http://www.w3.org/2000/svg" width="30" height="30" fill="none" xmlns:v="https://vecta.io/nano"><path fill-rule="evenodd" d="M28.125 15c0-.249-.099-.487-.275-.663s-.414-.275-.663-.275H5.076l5.901-5.899a.94.94 0 0 0 .275-.664.94.94 0 0 0-.275-.664.94.94 0 0 0-.664-.275.94.94 0 0 0-.664.275l-7.5 7.5a.94.94 0 0 0-.204.305c-.047.114-.072.236-.072.359a.94.94 0 0 0 .072.359c.047.114.117.217.204.304l7.5 7.5a.94.94 0 0 0 .664.275.94.94 0 0 0 .664-.275.94.94 0 0 0 .275-.664.94.94 0 0 0-.275-.664l-5.901-5.899h22.112a.94.94 0 0 0 .938-.937z" fill="#4b5563"/></svg>