<svg xmlns="http://www.w3.org/2000/svg" width="30" height="30" fill="none" xmlns:v="https://vecta.io/nano"><path fill-rule="evenodd" d="M1.875 15c0 .249.099.487.275.663s.414.275.663.275h22.112l-5.901 5.899a.94.94 0 0 0-.275.664.94.94 0 0 0 .275.664.94.94 0 0 0 .664.275.94.94 0 0 0 .664-.275l7.5-7.5c.087-.087.157-.191.204-.305s.072-.236.072-.359-.024-.245-.072-.359-.116-.217-.204-.304l-7.5-7.5a.94.94 0 0 0-.664-.275.94.94 0 0 0-.664.275.94.94 0 0 0-.275.664.94.94 0 0 0 .275.664l5.901 5.899H2.813a.94.94 0 0 0-.937.938z" fill="#4b5563"/></svg>