<svg xmlns="http://www.w3.org/2000/svg" width="50" height="50" fill="none" xmlns:v="https://vecta.io/nano"><path d="M25 12.5c.414 0 .812.165 1.105.458s.458.691.458 1.105v9.375h9.375c.414 0 .812.165 1.105.458s.458.691.458 1.105-.165.812-.458 1.105-.691.458-1.105.458h-9.375v9.375c0 .414-.165.812-.458 1.105s-.691.458-1.105.458-.812-.165-1.105-.458-.458-.691-.458-1.105v-9.375h-9.375c-.414 0-.812-.165-1.105-.458S12.5 25.414 12.5 25s.165-.812.458-1.105.691-.458 1.105-.458h9.375v-9.375c0-.414.165-.812.458-1.105S24.586 12.5 25 12.5z" fill="#4b5563"/></svg>