<svg width="0" height="0" class="hidden">
  <symbol fill="none" xmlns="http://www.w3.org/2000/svg" viewBox="0 0 50 50" id="delivery">
    <path d="M6.25 25H25V28.125H6.25V25Z" fill="currentColor"></path>
    <path d="M3.125 17.1875H18.75V20.3125H3.125V17.1875Z" fill="currentColor"></path>
    <path d="M46.7484 25.9469L42.0609 15.0094C41.9406 14.7282 41.7404 14.4886 41.4851 14.3203C41.2299 14.152 40.9308 14.0623 40.625 14.0625H35.9375V10.9375C35.9375 10.5231 35.7729 10.1257 35.4798 9.83265C35.1868 9.53962 34.7894 9.375 34.375 9.375H9.37499V12.5H32.8125V32.1187C32.1005 32.5322 31.4774 33.0825 30.9791 33.7379C30.4809 34.3933 30.1173 35.1409 29.9094 35.9375H20.0906C19.7103 34.4646 18.8059 33.181 17.5469 32.3272C16.2878 31.4734 14.7606 31.1081 13.2516 31.2998C11.7425 31.4915 10.3551 32.227 9.34949 33.3684C8.34388 34.5098 7.78908 35.9788 7.78908 37.5C7.78908 39.0212 8.34388 40.4902 9.34949 41.6316C10.3551 42.773 11.7425 43.5085 13.2516 43.7002C14.7606 43.8919 16.2878 43.5266 17.5469 42.6728C18.8059 41.819 19.7103 40.5354 20.0906 39.0625H29.9094C30.2493 40.4035 31.0266 41.5929 32.1184 42.4425C33.2102 43.292 34.5541 43.7533 35.9375 43.7533C37.3209 43.7533 38.6648 43.292 39.7566 42.4425C40.8484 41.5929 41.6257 40.4035 41.9656 39.0625H45.3125C45.7269 39.0625 46.1243 38.8979 46.4174 38.6049C46.7104 38.3118 46.875 37.9144 46.875 37.5V26.5625C46.8751 26.3508 46.832 26.1414 46.7484 25.9469ZM14.0625 40.625C13.4444 40.625 12.8402 40.4417 12.3263 40.0983C11.8124 39.755 11.4119 39.2669 11.1754 38.6959C10.9388 38.1249 10.877 37.4965 10.9975 36.8903C11.1181 36.2842 11.4157 35.7273 11.8528 35.2903C12.2898 34.8533 12.8466 34.5556 13.4528 34.435C14.059 34.3145 14.6874 34.3764 15.2584 34.6129C15.8294 34.8494 16.3175 35.2499 16.6608 35.7638C17.0042 36.2777 17.1875 36.8819 17.1875 37.5C17.1867 38.3285 16.8572 39.1229 16.2713 39.7088C15.6854 40.2947 14.891 40.6242 14.0625 40.625ZM35.9375 17.1875H39.5937L42.9437 25H35.9375V17.1875ZM35.9375 40.625C35.3194 40.625 34.7152 40.4417 34.2013 40.0983C33.6874 39.755 33.2869 39.2669 33.0504 38.6959C32.8138 38.1249 32.752 37.4965 32.8725 36.8903C32.9931 36.2842 33.2907 35.7273 33.7278 35.2903C34.1648 34.8533 34.7216 34.5556 35.3278 34.435C35.934 34.3145 36.5624 34.3764 37.1334 34.6129C37.7044 34.8494 38.1925 35.2499 38.5358 35.7638C38.8792 36.2777 39.0625 36.8819 39.0625 37.5C39.0617 38.3285 38.7322 39.1229 38.1463 39.7088C37.5604 40.2947 36.766 40.6242 35.9375 40.625ZM43.75 35.9375H41.9656C41.6214 34.5991 40.8429 33.4128 39.7519 32.5645C38.661 31.7162 37.3194 31.2538 35.9375 31.25V28.125H43.75V35.9375Z" fill="currentColor"></path>
  </symbol>
  <symbol fill="none" xmlns="http://www.w3.org/2000/svg" viewBox="0 0 50 50" id="parking">
    <path d="M25 45.8333C25 45.8333 41.6667 33.3333 41.6667 19.7916C41.6667 11.1625 34.2052 4.16663 25 4.16663C15.7948 4.16663 8.33333 11.1625 8.33333 19.7916C8.33333 33.3333 25 45.8333 25 45.8333Z" stroke="currentColor" stroke-width="4" stroke-linejoin="round"></path>
    <path d="M21.875 14.5833V31.2499" stroke="currentColor" stroke-width="4" stroke-linecap="round" stroke-linejoin="round"></path>
    <path d="M21.875 14.5833H28.125C29.2301 14.5833 30.2899 15.0222 31.0713 15.8036C31.8527 16.585 32.2917 17.6449 32.2917 18.7499C32.2917 19.855 31.8527 20.9148 31.0713 21.6962C30.2899 22.4776 29.2301 22.9166 28.125 22.9166H21.875V14.5833Z" stroke="currentColor" stroke-width="4" stroke-linejoin="round"></path>
  </symbol>
  <symbol fill="none" xmlns="http://www.w3.org/2000/svg" viewBox="0 0 50 50" id="screwdriver">
    <path d="M24.1952 1.4021L1.5625 12.2994V17.9687H48.4375V12.2693L24.1952 1.4021ZM45.3125 14.8437H4.6875V14.263L24.2423 4.8478L45.3125 14.2931V14.8437Z" fill="currentColor"></path>
    <path d="M4.6875 39.8438H45.3125V42.9688H4.6875V39.8438Z" fill="currentColor"></path>
    <path d="M1.5625 45.3125H48.4375V48.4375H1.5625V45.3125Z" fill="currentColor"></path>
    <path d="M5.46875 21.0938H8.59375V36.7188H5.46875V21.0938Z" fill="currentColor"></path>
    <path d="M41.4062 21.0938H44.5312V36.7188H41.4062V21.0938Z" fill="currentColor"></path>
    <path d="M32.0312 21.0938H35.1562V36.7188H32.0312V21.0938Z" fill="currentColor"></path>
    <path d="M14.8438 21.0938H17.9688V36.7188H14.8438V21.0938Z" fill="currentColor"></path>
    <path d="M23.4375 21.0938H26.5625V36.7188H23.4375V21.0938Z" fill="currentColor"></path>
  </symbol>
  <symbol fill="none" xmlns="http://www.w3.org/2000/svg" viewBox="0 0 50 50" id="bank">
    <path d="M3.125 43.75H46.875V46.875H3.125V43.75Z" fill="currentColor"></path>
    <path d="M38.2812 17.1875H12.5C11.6715 17.1883 10.8771 17.5178 10.2912 18.1037C9.70533 18.6896 9.37583 19.484 9.375 20.3125V32.8125C9.37748 34.8837 10.2014 36.8694 11.666 38.334C13.1306 39.7986 15.1163 40.6225 17.1875 40.625H29.6875C31.7587 40.6225 33.7444 39.7986 35.209 38.334C36.6736 36.8694 37.4975 34.8837 37.5 32.8125V31.25H38.2812C40.1461 31.25 41.9345 30.5092 43.2531 29.1906C44.5717 27.872 45.3125 26.0836 45.3125 24.2188C45.3125 22.3539 44.5717 20.5655 43.2531 19.2469C41.9345 17.9283 40.1461 17.1875 38.2812 17.1875ZM34.375 32.8125C34.3738 34.0553 33.8795 35.2469 33.0007 36.1257C32.1219 37.0045 30.9303 37.4988 29.6875 37.5H17.1875C15.9447 37.4988 14.7531 37.0045 13.8743 36.1257C12.9955 35.2469 12.5012 34.0553 12.5 32.8125V20.3125H34.375V32.8125ZM38.2812 28.125H37.5V20.3125H38.2812C39.3173 20.3125 40.3108 20.7241 41.0434 21.4566C41.776 22.1892 42.1875 23.1827 42.1875 24.2188C42.1875 25.2548 41.776 26.2483 41.0434 26.9809C40.3108 27.7134 39.3173 28.125 38.2812 28.125Z" fill="currentColor"></path>
    <path d="M29.6875 14.0625H26.5625V13.8344C26.5648 13.2536 26.4043 12.6839 26.0991 12.1898C25.7939 11.6957 25.3563 11.297 24.836 11.0391L20.6407 8.94375C19.6004 8.42742 18.7255 7.63002 18.1152 6.64192C17.5048 5.65381 17.1835 4.51451 17.1875 3.35312V1.5625H20.3125V3.35312C20.3106 3.9338 20.4713 4.50341 20.7765 4.99745C21.0816 5.49148 21.519 5.8902 22.0391 6.14844L26.2328 8.24375C27.2733 8.76001 28.1484 9.55735 28.759 10.5454C29.3696 11.5335 29.6913 12.6729 29.6875 13.8344V14.0625Z" fill="currentColor"></path>
  </symbol>
  <symbol fill="none" xmlns="http://www.w3.org/2000/svg" viewBox="0 0 50 50" id="cafe">
    <path d="M42.4813 2.78284L41.4547 3.32034C41.4547 3.32034 39.7047 4.25471 37.6469 5.51721C35.5891 6.78127 33.2156 8.28909 31.6891 9.81409C29.3766 12.1266 27.4172 15.0641 26.4656 16.4063L26.1219 16.0641L25 14.9906L23.8766 16.0641L20.0188 19.9703L18.8969 21.0938L20.0203 22.1688L21.2391 23.3875L10.3016 34.325L6.98281 35.986L6.7375 36.475L3.6125 42.7735L3.125 43.75L3.90625 44.5797L5.46875 46.0938L6.25 46.875L7.275 46.386L14.0141 43.0172L15.6734 39.6969L26.6109 28.7594L27.8328 29.9813L28.9062 31.1031L30.0297 29.9813L33.9359 26.1219L35.0094 25L33.9359 23.8766L33.5938 23.5344C34.8875 22.6313 37.6766 20.8188 40.1859 18.311C43.4516 15.0453 46.6797 8.54534 46.6797 8.54534L47.2172 7.51877L46.4359 6.69065L43.3109 3.56565L42.4813 2.78284ZM41.8953 6.64065L43.3594 8.10627C42.5781 9.51565 40.0516 13.9531 37.9391 16.0641C35.2781 18.725 30.3719 22.1672 30.3719 22.1672L28.8094 23.1938L30.1266 24.561L30.5672 25L28.9062 26.661L28.7594 26.5625L27.6859 25.4391L24.5609 22.3141L23.4375 21.2406L23.3391 21.0938L25 19.4328L26.7578 21.1922L27.8328 19.6297C27.8328 19.6297 31.5484 14.4469 33.9359 12.061C35.0156 10.9797 37.3297 9.36877 39.3063 8.15471C40.1555 7.62683 41.0188 7.12195 41.8953 6.64065ZM23.4375 25.6844L24.3172 26.5625L13.2812 37.5985L13.1344 37.7938L12.9875 38.0375L11.6703 40.6735L7.03125 42.9688L9.32656 38.3297L11.9625 37.0125L12.2078 36.8657L12.4031 36.7188L23.4375 25.6844Z" fill="currentColor"></path>
  </symbol>
  <symbol fill="none" xmlns="http://www.w3.org/2000/svg" viewBox="0 0 50 50" id="card">
    <g clip-path="url(#clip0_238:417)">
      <path d="M43.75 9.375C44.5788 9.375 45.3737 9.70424 45.9597 10.2903C46.5458 10.8763 46.875 11.6712 46.875 12.5V37.5C46.875 38.3288 46.5458 39.1237 45.9597 39.7097C45.3737 40.2958 44.5788 40.625 43.75 40.625H6.25C5.4212 40.625 4.62634 40.2958 4.04029 39.7097C3.45424 39.1237 3.125 38.3288 3.125 37.5V12.5C3.125 11.6712 3.45424 10.8763 4.04029 10.2903C4.62634 9.70424 5.4212 9.375 6.25 9.375H43.75ZM6.25 6.25C4.5924 6.25 3.00269 6.90848 1.83058 8.08058C0.65848 9.25268 0 10.8424 0 12.5L0 37.5C0 39.1576 0.65848 40.7473 1.83058 41.9194C3.00269 43.0915 4.5924 43.75 6.25 43.75H43.75C45.4076 43.75 46.9973 43.0915 48.1694 41.9194C49.3415 40.7473 50 39.1576 50 37.5V12.5C50 10.8424 49.3415 9.25268 48.1694 8.08058C46.9973 6.90848 45.4076 6.25 43.75 6.25H6.25Z" fill="currentColor"></path>
      <path d="M6.25 17.1875C6.25 16.7731 6.41462 16.3757 6.70765 16.0826C7.00067 15.7896 7.3981 15.625 7.8125 15.625H14.0625C14.4769 15.625 14.8743 15.7896 15.1674 16.0826C15.4604 16.3757 15.625 16.7731 15.625 17.1875V20.3125C15.625 20.7269 15.4604 21.1243 15.1674 21.4174C14.8743 21.7104 14.4769 21.875 14.0625 21.875H7.8125C7.3981 21.875 7.00067 21.7104 6.70765 21.4174C6.41462 21.1243 6.25 20.7269 6.25 20.3125V17.1875ZM6.25 26.5625C6.25 26.1481 6.41462 25.7507 6.70765 25.4576C7.00067 25.1646 7.3981 25 7.8125 25H23.4375C23.8519 25 24.2493 25.1646 24.5424 25.4576C24.8354 25.7507 25 26.1481 25 26.5625C25 26.9769 24.8354 27.3743 24.5424 27.6674C24.2493 27.9604 23.8519 28.125 23.4375 28.125H7.8125C7.3981 28.125 7.00067 27.9604 6.70765 27.6674C6.41462 27.3743 6.25 26.9769 6.25 26.5625ZM6.25 32.8125C6.25 32.3981 6.41462 32.0007 6.70765 31.7076C7.00067 31.4146 7.3981 31.25 7.8125 31.25H10.9375C11.3519 31.25 11.7493 31.4146 12.0424 31.7076C12.3354 32.0007 12.5 32.3981 12.5 32.8125C12.5 33.2269 12.3354 33.6243 12.0424 33.9174C11.7493 34.2104 11.3519 34.375 10.9375 34.375H7.8125C7.3981 34.375 7.00067 34.2104 6.70765 33.9174C6.41462 33.6243 6.25 33.2269 6.25 32.8125ZM15.625 32.8125C15.625 32.3981 15.7896 32.0007 16.0826 31.7076C16.3757 31.4146 16.7731 31.25 17.1875 31.25H20.3125C20.7269 31.25 21.1243 31.4146 21.4174 31.7076C21.7104 32.0007 21.875 32.3981 21.875 32.8125C21.875 33.2269 21.7104 33.6243 21.4174 33.9174C21.1243 34.2104 20.7269 34.375 20.3125 34.375H17.1875C16.7731 34.375 16.3757 34.2104 16.0826 33.9174C15.7896 33.6243 15.625 33.2269 15.625 32.8125ZM25 32.8125C25 32.3981 25.1646 32.0007 25.4576 31.7076C25.7507 31.4146 26.1481 31.25 26.5625 31.25H29.6875C30.1019 31.25 30.4993 31.4146 30.7924 31.7076C31.0854 32.0007 31.25 32.3981 31.25 32.8125C31.25 33.2269 31.0854 33.6243 30.7924 33.9174C30.4993 34.2104 30.1019 34.375 29.6875 34.375H26.5625C26.1481 34.375 25.7507 34.2104 25.4576 33.9174C25.1646 33.6243 25 33.2269 25 32.8125ZM34.375 32.8125C34.375 32.3981 34.5396 32.0007 34.8326 31.7076C35.1257 31.4146 35.5231 31.25 35.9375 31.25H39.0625C39.4769 31.25 39.8743 31.4146 40.1674 31.7076C40.4604 32.0007 40.625 32.3981 40.625 32.8125C40.625 33.2269 40.4604 33.6243 40.1674 33.9174C39.8743 34.2104 39.4769 34.375 39.0625 34.375H35.9375C35.5231 34.375 35.1257 34.2104 34.8326 33.9174C34.5396 33.6243 34.375 33.2269 34.375 32.8125Z" fill="currentColor"></path>
    </g>
    <defs>
      <clipPath id="clip0_238:417">
        <rect width="50" height="50" fill="white"></rect>
      </clipPath>
    </defs>
  </symbol>
</svg>